PathFileType	4	(X/Y/Z)	RBDS07static.trc
DataRate	CameraRate	NumFrames	NumMarkers	Units	OrigDataRate	OrigDataStartFrame	OrigNumFrames
150.000000	150.000000	4	48	mm	150.000000	18	150
Frame#	Time	L.Ankle			L.Ankle.Medial			L.ASIS			L.GTR			L.Heel.Bottom			L.Heel.Lateral			L.Heel.Top			L.HF			L.Iliac.Crest			L.Knee			L.Knee.Medial			L.MT1			L.MT2			L.MT5			L.PSIS			L.Shank.Bottom.Lateral			L.Shank.Bottom.Medial			L.Shank.Top.Lateral			L.Shank.Top.Medial			L.Thigh.Bottom.Lateral			L.Thigh.Bottom.Medial			L.Thigh.Top.Lateral			L.Thigh.Top.Medial			L.TT			R.Ankle			R.Ankle.Medial			R.ASIS			R.GTR			R.Heel.Bottom			R.Heel.Lateral			R.Heel.Top			R.HF			R.Iliac.Crest			R.Knee			R.Knee.Medial			R.MT1			R.MT2			R.MT5			R.PSIS			R.Shank.Bottom.Lateral			R.Shank.Bottom.Medial			R.Shank.Top.Lateral			R.Shank.Top.Medial			R.Thigh.Bottom.Lateral			R.Thigh.Bottom.Medial			R.Thigh.Top.Lateral			R.Thigh.Top.Medial			R.TT			
		X1	Y1	Z1	X2	Y2	Z2	X3	Y3	Z3	X4	Y4	Z4	X5	Y5	Z5	X6	Y6	Z6	X7	Y7	Z7	X8	Y8	Z8	X9	Y9	Z9	X10	Y10	Z10	X11	Y11	Z11	X12	Y12	Z12	X13	Y13	Z13	X14	Y14	Z14	X15	Y15	Z15	X16	Y16	Z16	X17	Y17	Z17	X18	Y18	Z18	X19	Y19	Z19	X20	Y20	Z20	X21	Y21	Z21	X22	Y22	Z22	X23	Y23	Z23	X24	Y24	Z24	X25	Y25	Z25	X26	Y26	Z26	X27	Y27	Z27	X28	Y28	Z28	X29	Y29	Z29	X30	Y30	Z30	X31	Y31	Z31	X32	Y32	Z32	X33	Y33	Z33	X34	Y34	Z34	X35	Y35	Z35	X36	Y36	Z36	X37	Y37	Z37	X38	Y38	Z38	X39	Y39	Z39	X40	Y40	Z40	X41	Y41	Z41	X42	Y42	Z42	X43	Y43	Z43	X44	Y44	Z44	X45	Y45	Z45	X46	Y46	Z46	X47	Y47	Z47	X48	Y48	Z48	

19	0.12	696.3212890625	113.3845367431641	1034.695678710938	718.78271484375	124.8762130737305	1117.49658203125	843.3304443359375	1083.347778320313	1089.720458984375	777.6473388671875	984.7105102539063	1046.64208984375	637.4039916992188	39.62170791625977	1080.099731445313	665.4481811523438	61.32371139526367	1038.88134765625	644.6427612304688	87.68778228759766	1082.705444335938	695.9892578125	502.3726501464844	1045.929443359375	781.6454467773438	1131.60302734375	1068.884033203125	705.2457885742188	560.7164306640625	1056.0390625	714.6326904296875	537.4257202148438	1173.14990234375	854.3892822265625	56.03372955322266	1119.522583007813	858.1233520507813	71.59496307373047	1080.117431640625	828.4859008789063	50.46433639526367	1010.90283203125	682.6910400390625	1101.834716796875	1180.17431640625	689.2822875976563	202.6949462890625	1034.825927734375	646.6347045898438	196.9148864746094	1068.495361328125	674.3485717773438	281.3804626464844	1027.7607421875	632.5150756835938	276.6897583007813	1060.65283203125	708.5463256835938	704.0118408203125	1045.19189453125	662.4537963867188	711.3611450195313	1102.147705078125	718.278076171875	813.9030151367188	1041.894165039063	678.8320922851563	820.1847534179688	1099.942993164063	755.2342529296875	468.3309936523438	1095.894409179688	702.688720703125	107.6629943847656	1411.60498046875	721.6436157226563	130.98193359375	1328.80126953125	850.246826171875	1084.235717773438	1347.970092773438	797.2587890625	984.8995971679688	1392.917724609375	636.24951171875	40.2202033996582	1370.2021484375	659.9728393554688	59.73135375976563	1408.898315429688	643.61767578125	89.77394104003906	1369.486572265625	724.5202026367188	502.70263671875	1414.21142578125	783.538330078125	1136.592041015625	1369.325927734375	733.201904296875	559.8734741210938	1404.837768554688	733.110595703125	541.856689453125	1288.023315429688	857.1449584960938	61.15867614746094	1328.698852539063	858.0982055664063	74.02405548095703	1369.904663085938	832.7554321289063	54.63690567016602	1433.003784179688	690.09228515625	1106.515380859375	1270.006103515625	693.6343383789063	202.8253631591797	1417.273071289063	653.0897827148438	209.4615020751953	1385.251586914063	693.5625610351563	286.7057495117188	1430.84033203125	650.2770385742188	289.2932739257813	1399.194702148438	764.97705078125	668.1070556640625	1412.419189453125	698.1965942382813	682.077880859375	1384.610473632813	783.5260620117188	776.95068359375	1419.8623046875	720.0670776367188	789.3040161132813	1395.018432617188	778.8077392578125	469.8685302734375	1364.917724609375	
20	0.1266666666666667	696.32861328125	113.3727340698242	1034.709838867188	718.7872314453125	124.8842391967773	1117.4873046875	843.3111572265625	1083.337890625	1089.734008789063	777.6287841796875	984.7295532226563	1046.6455078125	637.4083251953125	39.62005615234375	1080.098266601563	665.4454956054688	61.31845855712891	1038.885986328125	644.6434936523438	87.68549346923828	1082.711303710938	695.9727172851563	502.3693237304688	1045.9404296875	781.6549072265625	1131.617919921875	1068.911499023438	705.2200927734375	560.7130737304688	1056.053588867188	714.6165771484375	537.4273071289063	1173.153442382813	854.3857421875	56.03079605102539	1119.53955078125	858.1298828125	71.60007476806641	1080.1298828125	828.4774169921875	50.46210861206055	1010.901306152344	682.6620483398438	1101.837158203125	1180.172973632813	689.2861938476563	202.6849517822266	1034.849365234375	646.6340942382813	196.9121551513672	1068.512939453125	674.3385620117188	281.3760681152344	1027.764770507813	632.5087890625	276.6909484863281	1060.662963867188	708.5415649414063	704.011962890625	1045.208129882813	662.4404907226563	711.3540649414063	1102.155883789063	718.265380859375	813.9032592773438	1041.905883789063	678.822021484375	820.17626953125	1099.953857421875	755.2237548828125	468.3212890625	1095.90771484375	702.6804809570313	107.6587524414063	1411.61767578125	721.6467895507813	130.9712524414063	1328.810913085938	850.2355346679688	1084.24560546875	1347.97509765625	797.2489624023438	984.9097290039063	1392.927734375	636.2545776367188	40.218505859375	1370.209838867188	659.9785766601563	59.72830200195313	1408.907348632813	643.6165161132813	89.77617645263672	1369.495361328125	724.4556884765625	502.6524963378906	1414.088500976563	783.521484375	1136.589477539063	1369.322387695313	733.2041015625	559.8890380859375	1404.845458984375	733.0950317382813	541.8644409179688	1288.025390625	857.1465454101563	61.15921783447266	1328.700439453125	858.0875244140625	74.02001190185547	1369.922119140625	832.757080078125	54.6401481628418	1433.013671875	690.0753784179688	1106.505126953125	1270.003540039063	693.6231689453125	202.8235931396484	1417.267333984375	653.0857543945313	209.4591827392578	1385.257934570313	693.5665893554688	286.7051391601563	1430.84033203125	650.2711791992188	289.2879943847656	1399.187377929688	764.9638061523438	668.1204223632813	1412.435302734375	698.1889038085938	682.0716552734375	1384.612182617188	783.5166625976563	776.956298828125	1419.864135742188	720.065673828125	789.3150024414063	1395.018920898438	778.7993774414063	469.874267578125	1364.931030273438	
21	0.1333333333333333	696.112060546875	113.3996047973633	1034.545288085938	718.7865600585938	124.8831329345703	1117.502319335938	843.29052734375	1083.351806640625	1089.73779296875	777.5892944335938	984.7249145507813	1046.642700195313	637.4076538085938	39.61747360229492	1080.099243164063	665.442138671875	61.32750701904297	1038.894165039063	644.6437377929688	87.68601989746094	1082.71533203125	695.9393920898438	502.3789672851563	1045.947509765625	781.630615234375	1131.6181640625	1068.907470703125	705.1924438476563	560.7263793945313	1056.059814453125	714.6065063476563	537.4204711914063	1173.161865234375	854.3868408203125	56.0465202331543	1119.5322265625	858.1253051757813	71.6104736328125	1080.129516601563	828.490478515625	50.47764205932617	1010.917114257813	682.6489868164063	1101.826904296875	1180.181274414063	689.267822265625	202.6897125244141	1034.847045898438	646.63134765625	196.9030456542969	1068.518920898438	674.3278198242188	281.3760681152344	1027.7724609375	632.4956665039063	276.6878967285156	1060.673828125	708.5206298828125	704.0235595703125	1045.208129882813	662.4154052734375	711.3536987304688	1102.160278320313	718.2340698242188	813.9046020507813	1041.912109375	678.799072265625	820.1726684570313	1099.970458984375	755.1884155273438	468.3277893066406	1095.911987304688	702.6851196289063	107.6652145385742	1411.601318359375	721.6395263671875	130.9836883544922	1328.812866210938	850.2193603515625	1084.25146484375	1347.966186523438	797.2363891601563	984.9022827148438	1392.923461914063	636.2564697265625	40.21297454833984	1370.207885742188	659.9692993164063	59.71996307373047	1408.907470703125	643.61767578125	89.77299499511719	1369.505493164063	724.5072021484375	502.6970825195313	1414.222290039063	783.5048217773438	1136.580444335938	1369.317504882813	733.1973266601563	559.8802490234375	1404.847900390625	733.0886840820313	541.8681030273438	1288.025268554688	857.1384887695313	61.1613883972168	1328.700073242188	858.0802612304688	74.03614044189453	1369.927856445313	832.7586669921875	54.64083099365234	1433.029174804688	690.0618286132813	1106.507568359375	1270.011596679688	693.6143798828125	202.8245239257813	1417.270629882813	653.0806884765625	209.4551239013672	1385.256958007813	693.5511474609375	286.7113952636719	1430.844604492188	650.268798828125	289.2913513183594	1399.19189453125	764.9600219726563	668.1045532226563	1412.43212890625	698.17822265625	682.0674438476563	1384.614990234375	783.50927734375	776.9580688476563	1419.874267578125	720.0499877929688	789.3046875	1395.030151367188	778.7948608398438	469.8770751953125	1364.941040039063	
22	0.14	696.3096313476563	113.3803176879883	1034.712524414063	718.7801513671875	124.8762969970703	1117.504272460938	843.2745971679688	1083.349487304688	1089.750366210938	777.5835571289063	984.729248046875	1046.649169921875	637.4091186523438	39.62336730957031	1080.102172851563	665.4506225585938	61.32168579101563	1038.896606445313	644.6371459960938	87.69756317138672	1082.708129882813	695.9376220703125	502.3753967285156	1045.951782226563	781.6141357421875	1131.623779296875	1068.92529296875	705.177490234375	560.7151489257813	1056.070922851563	714.5867919921875	537.40673828125	1173.174438476563	854.3884887695313	56.04756927490234	1119.538696289063	858.1248779296875	71.61505126953125	1080.139770507813	828.48681640625	50.48099136352539	1010.916442871094	682.6187133789063	1101.821411132813	1180.193603515625	689.270263671875	202.6875610351563	1034.856079101563	646.6244506835938	196.9007568359375	1068.526489257813	674.3159790039063	281.3748779296875	1027.7890625	632.4892578125	276.6897277832031	1060.669555664063	708.501708984375	704.025146484375	1045.2177734375	662.402099609375	711.3477783203125	1102.169677734375	718.223388671875	813.9024047851563	1041.918090820313	678.78466796875	820.1663208007813	1099.981323242188	755.1737060546875	468.3157043457031	1095.912719726563	702.6857299804688	107.6630401611328	1411.612060546875	721.6534423828125	130.9806060791016	1328.813720703125	850.1981201171875	1084.254638671875	1347.975463867188	797.2186279296875	984.8995361328125	1392.920043945313	636.2474365234375	40.21611022949219	1370.195922851563	659.9750366210938	59.72208404541016	1408.910522460938	643.6138916015625	89.77941131591797	1369.498168945313	724.5028076171875	502.6992797851563	1414.221923828125	783.4968872070313	1136.578491210938	1369.322875976563	733.1856689453125	559.8736572265625	1404.837646484375	733.0926513671875	541.86376953125	1288.0361328125	857.148681640625	61.16978454589844	1328.70751953125	858.08203125	74.04306030273438	1369.92822265625	832.7589111328125	54.64266586303711	1433.0107421875	690.0442504882813	1106.500122070313	1270.01904296875	693.6140747070313	202.8227996826172	1417.275634765625	653.0812377929688	209.4490051269531	1385.257934570313	693.5464477539063	286.7094421386719	1430.844116210938	650.2531127929688	289.2868347167969	1399.18994140625	764.9468383789063	668.1100463867188	1412.43505859375	698.1763305664063	682.0620727539063	1384.615356445313	783.493408203125	776.95068359375	1419.872314453125	720.0447387695313	789.29345703125	1395.033081054688	778.7868041992188	469.8802490234375	1364.943725585938	
